<svg width="532" height="779" viewBox="0 0 532 779" fill="none" xmlns="http://www.w3.org/2000/svg">
<path fill-rule="evenodd" clip-rule="evenodd" d="M532 0H0V779H532V0ZM137 174C123.193 174 112 185.193 112 199V350C112 363.807 123.193 375 137 375H395C408.807 375 420 363.807 420 350V199C420 185.193 408.807 174 395 174H137Z" fill="#181929" fill-opacity="1"/>
<path d="M342.25 174H399C410.046 174 419 182.954 419 194V224.25M188.75 174H132C120.954 174 112 182.954 112 194V224.25M419 324.75V355C419 366.046 410.046 375 399 375H342.25M112 324.75V355C112 366.046 120.954 375 132 375H188.75" stroke="#BF0303" stroke-width="6" stroke-linecap="round"/>
</svg>
