<?xml version="1.0" encoding="utf-8"?>
<svg height="800px" width="800px" version="1.1" id="Capa_1" viewBox="0 0 16.603 16.603" xmlns="http://www.w3.org/2000/svg">
  <g style="" transform="matrix(1.019071, 0, 0, 1, -0.316572, 0)">
    <path style="paint-order: fill; stroke-width: 0.2px; fill: rgb(255, 255, 255); stroke: rgb(255, 255, 255);" d="M 14.585 6.109 C 14.594 6.102 14.585 6.036 14.585 6.036 C 14.586 5.929 14.587 5.82 14.584 5.709 L 14.589 5.632 L 14.446 4.832 C 14.446 4.13 14.484 -0.115 8.436 0 C 2.387 0.115 2.594 4.13 2.594 4.832 L 2.594 5.889 C 2.587 5.909 2.581 5.926 2.576 5.94 C 2.484 6.205 2.477 6.224 2.853 8.213 C 2.756 8.242 2.671 8.301 2.606 8.387 C 2.285 8.811 2.565 9.933 2.652 10.234 C 2.732 10.76 2.936 11.063 3.122 11.236 C 3.535 14.2 6.082 16.527 8.322 16.527 C 10.939 16.527 13.416 13.962 13.853 11.239 C 14.039 11.069 14.244 10.772 14.321 10.267 C 14.414 9.934 14.694 8.81 14.372 8.385 C 14.333 8.334 14.287 8.292 14.235 8.26 C 14.33 7.933 14.498 6.64 14.57 6.099 C 14.59 5.948 14.51 6.16 16.508 6.099 C 16.524 6.395 16.566 9.73 16.6 16.507 C 15.344 16.735 0.498 16.462 0.097 16.606 C 0.03 6.605 -0.036 3.515 0.03 0.013 C 3.069 -0.03 16.544 0.047 16.544 0.047 C 16.544 0.047 16.534 5.829 16.498 6.029"/>
  </g>
  <g transform="matrix(1, 0, 0, 1, 19.640784, -7.132806)">
    <path style="paint-order: fill; fill: none; stroke-width: 0.2px; stroke: rgb(178, 28, 14);" d="M -5.277 13.281 C -5.268 13.274 -5.277 13.208 -5.277 13.208 C -5.276 13.101 -5.275 12.992 -5.278 12.881 L -5.273 12.804 L -5.416 12.004 C -5.416 11.302 -5.378 7.057 -11.426 7.172 C -17.475 7.287 -17.268 11.302 -17.268 12.004 L -17.268 13.061 C -17.275 13.081 -17.281 13.098 -17.286 13.112 C -17.378 13.377 -17.385 13.396 -17.009 15.385 C -17.106 15.414 -17.191 15.473 -17.256 15.559 C -17.577 15.983 -17.297 17.105 -17.21 17.406 C -17.13 17.932 -16.926 18.235 -16.74 18.408 C -16.327 21.372 -13.78 23.699 -11.54 23.699 C -8.923 23.699 -6.446 21.134 -6.009 18.411 C -5.823 18.241 -5.618 17.944 -5.541 17.439 C -5.448 17.106 -5.168 15.982 -5.49 15.557 C -5.529 15.506 -5.575 15.464 -5.627 15.432 C -5.486 14.949 -5.303 14.159 -5.277 13.281 Z"/>
  </g>
</svg>