<?xml version="1.0" encoding="utf-8"?>
<svg height="800px" width="800px" version="1.1" id="Capa_1" viewBox="0 0 16.603 16.603" xmlns="http://www.w3.org/2000/svg">
  <g>
    <path style="paint-order: fill; fill: none; stroke-width: 0.2px; stroke: rgb(178, 28, 14);" d="M 14.592 6.185 C 14.601 6.178 14.592 6.112 14.592 6.112 C 14.593 6.005 14.594 5.896 14.591 5.785 L 14.596 5.708 L 14.453 4.908 C 14.453 4.206 14.491 -0.039 8.443 0.076 C 2.394 0.191 2.601 4.206 2.601 4.908 L 2.601 5.965 C 2.594 5.985 2.588 6.002 2.583 6.016 C 2.491 6.281 2.484 6.3 2.86 8.289 C 2.763 8.318 2.678 8.377 2.613 8.463 C 2.292 8.887 2.572 10.009 2.659 10.31 C 2.739 10.836 2.943 11.139 3.129 11.312 C 3.542 14.276 6.089 16.603 8.329 16.603 C 10.946 16.603 13.423 14.038 13.86 11.315 C 14.046 11.145 14.251 10.848 14.328 10.343 C 14.421 10.01 14.701 8.886 14.379 8.461 C 14.34 8.41 14.294 8.368 14.242 8.336 C 14.383 7.853 14.566 7.063 14.592 6.185 Z"/>
  </g>
</svg>