<?xml version="1.0" encoding="utf-8"?>
<svg width="800px" height="800px" viewBox="0 0 16 16" version="1.1" class="si-glyph si-glyph-head" xmlns="http://www.w3.org/2000/svg">
  <title>Head</title>
  <path d="M 23.695 -0.485 L 23.695 16.509 L 6.701 16.509 L 6.701 -0.485 Z M 7.701 15.509 L 22.695 15.509 L 22.695 0.515 L 7.701 0.515 Z" style="fill: none;"/>
  <path d="M 23.695 -0.485 L 23.695 16.509 L 6.701 16.509 L 6.701 -0.485 Z M 7.701 15.509 L 22.695 15.509 L 22.695 0.515 L 7.701 0.515 Z" style="fill: none;"/>
  <path d="M 23.695 -0.485 L 23.695 16.509 L 6.701 16.509 L 6.701 -0.485 Z M 7.701 15.509 L 22.695 15.509 L 22.695 0.515 L 7.701 0.515 Z" style="fill: none;"/>
  <path d="M 23.695 -0.485 L 23.695 16.509 L 6.701 16.509 L 6.701 -0.485 Z M 7.701 15.509 L 22.695 15.509 L 22.695 0.515 L 7.701 0.515 Z" style="fill: none;"/>
  <rect x="13.69" y="8.035" width="2.333" height="0.158" style="fill: rgb(255, 255, 255);"/>
  <g stroke="none" stroke-width="1" fill="#434343" fill-rule="evenodd" transform="matrix(-1, 0, 0, 1, 14.944201, 0)">
    <g transform="translate(1.000000, 0.000000)">
      <g>
        <g>
          <path d="M -0.568 5.319 C -0.568 5.319 -0.777 1.118 3.556 0.246 C 7.889 -0.626 10.519 1.752 10.906 3.417 C 11.293 5.082 11.481 5.935 11.293 6.588 C 11.061 6.905 11.138 7.143 11.602 7.936 C 12.066 8.729 12.995 9.601 11.679 9.759 C 10.828 9.918 11.37 10.472 11.37 10.472 C 11.37 10.472 11.602 10.948 10.906 11.027 C 10.906 11.027 11.37 11.899 10.983 11.899 C 10.596 11.899 10.519 12.058 10.441 12.375 C 10.364 12.692 10.518 14.436 7.81 13.405 C 7.191 13.088 6.918 14.382 6.572 15.149 C 6.364 15.61 6.141 16.239 5.102 15.783 C 4.175 15.376 2.107 14.405 1.331 13.078 C 0.907 12.351 2.024 11.3 1.482 9.873 C 0.94 8.446 0.786 8.896 0.244 8.104 C -0.606 8.095 -2.057 8.038 -2.058 8.051 C -2.11 9.193 -2.081 8.025 -2.093 16.009 C -1.679 16.009 7.55 16.178 13.944 15.996 C 13.947 0.015 13.98 4.518 13.932 0.022 C -2.128 0.021 13.945 0.018 -2.11 0.005 C -2.078 8.049 -2.112 6.205 -2.084 8.051 C -0.954 8.068 -2.088 8.067 0.271 8.084 C 0.201 8.522 -0.571 5.391 -0.562 5.403 L -0.568 5.319 Z" class="si-glyph-fill" stroke-width="0.1px" style="fill: rgb(255, 255, 255);"/>
          <path d="M -0.527 5.319 C -0.527 5.319 -0.716 1.118 3.617 0.246 C 7.95 -0.626 10.58 1.752 10.967 3.417 C 11.354 5.082 11.542 5.935 11.354 6.588 C 11.122 6.905 11.199 7.143 11.663 7.936 C 12.127 8.729 13.056 9.601 11.74 9.759 C 10.889 9.918 11.431 10.472 11.431 10.472 C 11.431 10.472 11.663 10.948 10.967 11.027 C 10.967 11.027 11.431 11.899 11.044 11.899 C 10.657 11.899 10.58 12.058 10.502 12.375 C 10.425 12.692 10.579 14.436 7.871 13.405 C 7.252 13.088 6.979 14.382 6.633 15.149 C 6.425 15.61 6.202 16.239 5.163 15.783 C 4.236 15.376 2.168 14.405 1.392 13.078 C 0.968 12.351 2.085 11.3 1.543 9.873 C 1.001 8.446 0.831 8.886 0.289 8.094 C -0.252 7.301 -0.449 6.27 -0.527 5.319 Z" class="si-glyph-fill" stroke-width="0.1px" stroke="rgb(178, 28, 14)" style="fill: none;"/>
        </g>
      </g>
    </g>
  </g>
</svg>