<?xml version="1.0" encoding="utf-8"?>
<svg width="800px" height="800px" viewBox="0 0 16 16" version="1.1" class="si-glyph si-glyph-head" xmlns="http://www.w3.org/2000/svg">
  <title>Head</title>
  <path d="M 23.695 -0.485 L 23.695 16.509 L 6.701 16.509 L 6.701 -0.485 Z M 7.701 15.509 L 22.695 15.509 L 22.695 0.515 L 7.701 0.515 Z" style="fill: none;"/>
  <path d="M 23.695 -0.485 L 23.695 16.509 L 6.701 16.509 L 6.701 -0.485 Z M 7.701 15.509 L 22.695 15.509 L 22.695 0.515 L 7.701 0.515 Z" style="fill: none;"/>
  <path d="M 23.695 -0.485 L 23.695 16.509 L 6.701 16.509 L 6.701 -0.485 Z M 7.701 15.509 L 22.695 15.509 L 22.695 0.515 L 7.701 0.515 Z" style="fill: none;"/>
  <path d="M 23.695 -0.485 L 23.695 16.509 L 6.701 16.509 L 6.701 -0.485 Z M 7.701 15.509 L 22.695 15.509 L 22.695 0.515 L 7.701 0.515 Z" style="fill: none;"/>
  <g stroke="none" stroke-width="1" fill="#434343" fill-rule="evenodd" transform="matrix(-1, 0, 0, 1, 14.944201, 0)">
    <g transform="translate(1.000000, 0.000000)">
      <g>
        <g>
          <path d="M -0.568 10.774 C -0.568 10.774 -0.777 14.975 3.556 15.847 C 7.889 16.719 10.519 14.341 10.906 12.676 C 11.293 11.011 11.481 10.158 11.293 9.505 C 11.061 9.188 11.138 8.95 11.602 8.157 C 12.066 7.364 12.995 6.492 11.679 6.334 C 10.828 6.175 11.37 5.621 11.37 5.621 C 11.37 5.621 11.602 5.145 10.906 5.066 C 10.906 5.066 11.37 4.194 10.983 4.194 C 10.596 4.194 10.519 4.035 10.441 3.718 C 10.364 3.401 10.518 1.657 7.81 2.688 C 7.191 3.005 6.918 1.711 6.572 0.944 C 6.364 0.483 6.141 -0.146 5.102 0.31 C 4.175 0.717 2.107 1.688 1.331 3.015 C 0.907 3.742 2.024 4.793 1.482 6.22 C 0.94 7.647 0.764 7.224 0.222 8.016 C -0.628 8.025 -2.057 8.055 -2.058 8.042 C -2.11 6.9 -2.031 6.208 -2.168 0.175 C -1.754 0.175 7.55 -0.085 13.944 0.097 C 13.663 4.15 13.874 11.545 13.826 16.041 C 12.372 16.102 1.15 16 -2.125 16.013 C -2.14 15.255 -2.238 9.851 -2.062 8.045 C -0.932 8.028 -2.088 8.026 0.271 8.009 C 0.201 7.571 -0.571 10.702 -0.562 10.69 L -0.568 10.774 Z" class="si-glyph-fill" stroke-width="0.1px" style="fill: rgb(255, 255, 255); transform-box: fill-box; transform-origin: 50% 50%;" transform="matrix(-1, 0, 0, -1, 0, -0.000001)"/>
          <path d="M -0.639 10.682 C -0.639 10.682 -0.828 14.883 3.505 15.755 C 7.838 16.627 10.468 14.249 10.855 12.584 C 11.242 10.919 11.43 10.066 11.242 9.413 C 11.01 9.096 11.087 8.858 11.551 8.065 C 12.015 7.272 12.944 6.4 11.628 6.242 C 10.777 6.083 11.319 5.529 11.319 5.529 C 11.319 5.529 11.551 5.053 10.855 4.974 C 10.855 4.974 11.319 4.102 10.932 4.102 C 10.545 4.102 10.468 3.943 10.39 3.626 C 10.313 3.309 10.467 1.565 7.759 2.596 C 7.14 2.913 6.867 1.619 6.521 0.852 C 6.313 0.391 6.09 -0.238 5.051 0.218 C 4.124 0.625 2.056 1.596 1.28 2.923 C 0.856 3.65 1.973 4.701 1.431 6.128 C 0.889 7.555 0.719 7.115 0.177 7.907 C -0.364 8.7 -0.561 9.731 -0.639 10.682 Z" class="si-glyph-fill" stroke-width="0.1px" stroke="rgb(178, 28, 14)" style="fill: none; transform-box: fill-box; transform-origin: 50% 50%;" transform="matrix(-1, 0, 0, -1, -0.000001, -0.000001)"/>
        </g>
      </g>
    </g>
  </g>
</svg>